<?xml version="1.0" standalone="no"?>
<!DOCTYPE svg PUBLIC "-//W3C//DTD SVG 20010904//EN"
 "http://www.w3.org/TR/2001/REC-SVG-20010904/DTD/svg10.dtd">
<svg version="1.0" xmlns="http://www.w3.org/2000/svg"
 width="512.000000pt" height="512.000000pt" viewBox="0 0 512.000000 512.000000"
 preserveAspectRatio="xMidYMid meet">

<g transform="translate(0.000000,512.000000) scale(0.100000,-0.100000)"
fill="#000000" stroke="none">
<path d="M2153 5106 c-127 -32 -241 -118 -307 -230 -29 -50 -43 -65 -55 -61
-29 12 -148 18 -196 11 -83 -13 -125 -86 -74 -132 18 -16 37 -19 118 -19 77 0
108 -5 158 -24 54 -20 67 -22 92 -11 16 6 34 24 39 38 5 15 18 50 28 77 25 72
121 166 194 191 124 42 249 16 353 -74 64 -56 94 -56 155 -1 75 67 142 93 237
93 89 0 147 -20 215 -74 47 -37 94 -110 111 -170 13 -49 49 -90 78 -90 10 0
40 10 67 22 73 33 190 31 266 -4 111 -51 181 -149 199 -275 14 -98 21 -103
143 -102 145 1 235 -39 303 -134 53 -75 66 -125 61 -232 -6 -111 0 -125 70
-157 71 -33 145 -112 171 -183 18 -48 22 -76 19 -140 -4 -92 -26 -147 -87
-217 -55 -62 -57 -76 -21 -145 68 -131 62 -227 -22 -365 -28 -46 -58 -95 -67
-111 -10 -16 -22 -25 -30 -22 -8 3 -41 8 -73 12 l-58 6 0 79 c0 70 -3 82 -25
103 -34 35 -65 31 -121 -14 -93 -73 -128 -86 -234 -86 -113 0 -167 21 -240 95
-70 69 -92 126 -99 248 -7 122 -11 126 -105 136 -89 10 -160 46 -228 117 -65
67 -75 69 -163 38 -89 -31 -189 -24 -273 21 -35 18 -75 47 -89 64 -29 35 -60
55 -86 56 -9 0 -45 -25 -78 -56 -78 -72 -133 -96 -229 -102 -60 -3 -86 0 -130
17 -87 33 -102 29 -165 -38 -65 -69 -143 -108 -233 -117 -89 -10 -99 -24 -104
-149 -3 -88 -7 -107 -33 -153 -61 -113 -176 -182 -300 -182 -83 0 -155 27
-225 85 -102 84 -160 50 -160 -95 l0 -70 -52 0 c-29 0 -62 -3 -73 -6 -16 -4
-30 11 -72 79 -84 134 -96 167 -92 257 3 63 10 88 37 140 17 34 32 73 32 85 0
11 -21 46 -47 76 -70 82 -88 128 -88 229 0 71 4 94 26 141 34 72 92 130 169
169 33 17 61 36 62 43 0 6 1 62 2 122 1 91 5 118 23 157 33 71 103 141 175
173 55 25 72 28 164 27 122 -2 133 6 146 100 8 56 27 106 78 196 48 87 -53
153 -122 80 -35 -37 -85 -136 -94 -185 -6 -30 -10 -33 -43 -33 -57 0 -156 -27
-219 -59 -160 -81 -262 -247 -262 -425 l0 -71 -36 -20 c-47 -25 -139 -125
-168 -183 -82 -163 -74 -349 22 -498 l38 -59 -17 -41 c-10 -22 -23 -72 -29
-111 -19 -122 9 -225 100 -370 22 -34 40 -66 40 -70 -1 -5 -32 -29 -70 -56
-197 -134 -290 -387 -230 -621 29 -114 73 -190 161 -277 111 -111 222 -161
392 -175 l74 -7 12 -66 c7 -36 30 -119 51 -183 291 -873 1226 -1341 2100
-1051 216 72 476 230 624 382 67 67 77 105 38 143 -39 39 -72 29 -161 -53
-389 -353 -901 -484 -1396 -359 -278 70 -524 214 -725 426 -186 196 -309 425
-378 704 l-26 105 -3 562 -4 562 44 -19 c61 -27 163 -40 239 -30 222 28 393
194 429 416 11 70 13 72 43 78 51 10 158 64 208 107 47 39 49 40 90 29 23 -7
78 -12 122 -11 101 0 194 27 272 80 l57 39 49 -35 c103 -75 272 -105 400 -73
47 12 49 12 80 -20 45 -43 110 -81 188 -107 l65 -22 7 -58 c17 -129 87 -248
195 -329 133 -100 317 -125 473 -64 l52 20 -4 -532 c-4 -454 -7 -547 -22 -628
-26 -141 -88 -316 -161 -457 -55 -107 -63 -128 -54 -150 21 -55 83 -70 122
-30 32 31 129 225 166 330 27 76 51 165 75 268 5 24 12 27 63 33 315 37 543
286 543 593 0 191 -96 375 -259 494 l-33 24 56 90 c84 134 100 181 100 300 0
79 -5 113 -22 161 l-23 62 39 60 c143 222 76 536 -145 675 -36 23 -38 28 -35
63 5 54 -23 178 -54 241 -71 146 -228 252 -400 269 l-63 7 -20 60 c-72 211
-275 349 -496 334 -44 -3 -87 -8 -95 -11 -11 -4 -22 8 -40 41 -37 70 -131 165
-198 201 -160 86 -353 79 -505 -18 l-47 -29 -42 28 c-103 68 -268 97 -385 67z
m-1233 -2801 l0 -124 -37 -6 c-97 -16 -169 -59 -215 -127 -52 -77 -26 -152 50
-146 30 2 41 10 65 46 31 46 71 72 112 72 l25 0 0 -204 c0 -112 3 -218 6 -235
l7 -31 -60 0 c-121 0 -253 69 -329 173 -135 183 -119 414 40 573 86 86 185
130 299 133 l37 1 0 -125z m3415 110 c84 -22 147 -60 210 -126 129 -135 159
-326 78 -497 -56 -118 -203 -226 -326 -239 l-57 -6 0 238 0 238 47 -6 c48 -5
46 -3 128 -99 24 -28 79 -23 104 8 28 36 26 62 -8 116 -49 76 -116 116 -223
132 l-48 7 0 125 c0 142 -6 135 95 109z"/>
<path d="M1870 2333 c-49 -18 -50 -22 -50 -265 0 -215 1 -229 20 -248 30 -30
83 -27 109 6 20 25 21 39 21 235 0 221 -5 249 -47 268 -26 12 -30 12 -53 4z"/>
<path d="M3245 2330 c-48 -19 -50 -29 -50 -265 0 -205 2 -225 19 -244 29 -32
88 -29 115 5 20 25 21 39 21 240 0 207 -1 214 -22 238 -27 29 -55 38 -83 26z"/>
<path d="M2091 1374 c-42 -53 -21 -94 84 -169 216 -155 476 -177 712 -60 53
26 115 67 147 96 47 43 56 57 56 85 0 43 -30 74 -70 74 -21 0 -48 -14 -88 -47
-129 -106 -297 -150 -447 -120 -96 20 -181 60 -255 122 -66 54 -107 60 -139
19z"/>
</g>
</svg>
