<?xml version="1.0" standalone="no"?>
<!DOCTYPE svg PUBLIC "-//W3C//DTD SVG 20010904//EN"
 "http://www.w3.org/TR/2001/REC-SVG-20010904/DTD/svg10.dtd">
<svg version="1.0" xmlns="http://www.w3.org/2000/svg"
 width="512.000000pt" height="512.000000pt" viewBox="0 0 512.000000 512.000000"
 preserveAspectRatio="xMidYMid meet">

<g transform="translate(0.000000,512.000000) scale(0.100000,-0.100000)"
fill="#000000" stroke="none">
<path d="M2320 4944 c-485 -42 -780 -114 -1096 -269 -159 -77 -194 -104 -194
-149 0 -37 34 -76 66 -76 12 0 85 33 165 73 170 86 294 132 488 181 560 141
1288 120 1801 -51 647 -215 1022 -643 1110 -1262 6 -41 15 -179 20 -305 14
-334 38 -475 165 -971 40 -159 83 -335 94 -390 86 -428 -17 -609 -402 -704
-99 -24 -286 -47 -460 -56 l-128 -7 50 100 c113 226 170 478 171 759 0 102
-10 135 -47 152 -34 15 -47 14 -75 -9 -24 -19 -25 -24 -32 -182 -12 -269 -49
-434 -142 -627 -30 -63 -80 -153 -112 -200 -72 -108 -221 -264 -329 -345 -570
-428 -1366 -378 -1882 118 -76 73 -174 193 -228 281 -55 86 -131 256 -158 353
-54 188 -56 218 -62 804 l-5 547 23 5 c13 3 60 10 104 17 254 35 556 145 760
277 217 139 413 351 527 569 24 46 45 83 48 83 3 0 18 -26 34 -57 102 -210
301 -434 511 -575 217 -146 519 -259 790 -297 44 -7 90 -14 103 -17 l22 -4 0
-269 0 -270 26 -20 c15 -12 33 -21 40 -21 26 0 62 23 73 47 15 34 15 603 0
637 -14 31 -45 43 -129 51 -107 11 -305 53 -423 91 -464 150 -797 457 -945
874 -17 47 -33 92 -37 102 -3 9 -20 22 -36 28 -34 14 -83 0 -94 -28 -4 -10
-20 -55 -37 -102 -123 -346 -381 -625 -729 -789 -179 -84 -443 -157 -639 -176
-84 -8 -115 -20 -129 -51 -14 -32 -15 -1043 -1 -1189 20 -204 73 -392 161
-567 l50 -100 -128 7 c-679 35 -917 187 -889 569 10 127 27 212 116 561 134
522 156 654 170 996 11 264 33 417 81 573 66 214 177 401 335 566 78 81 94
103 94 129 0 42 -31 71 -74 71 -30 0 -46 -12 -126 -92 -198 -201 -331 -444
-405 -735 -29 -118 -45 -258 -55 -483 -13 -323 -41 -499 -140 -880 -128 -494
-156 -646 -147 -806 13 -230 112 -380 317 -484 170 -85 498 -140 845 -140 96
0 112 -2 122 -18 28 -46 148 -173 223 -237 117 -100 207 -159 355 -230 330
-161 680 -202 1044 -123 331 71 654 265 870 521 l70 84 193 6 c314 11 507 40
670 101 261 98 388 258 405 509 10 158 -17 312 -124 722 -120 461 -149 634
-163 970 -10 229 -26 370 -55 488 -103 408 -322 720 -670 952 -289 194 -648
314 -1105 371 -109 14 -584 26 -680 18z"/>
<path d="M1842 2417 c-21 -22 -22 -31 -22 -236 0 -130 4 -220 11 -232 25 -48
105 -44 128 7 7 16 11 99 11 230 0 204 0 205 -25 229 -31 32 -74 33 -103 2z"/>
<path d="M3175 2415 c-25 -24 -25 -25 -25 -229 0 -131 4 -214 11 -230 23 -51
103 -55 128 -7 7 12 11 102 11 234 0 210 0 214 -23 235 -31 29 -72 28 -102 -3z"/>
<path d="M2050 1477 c-29 -15 -45 -54 -37 -89 8 -32 112 -118 197 -162 104
-54 191 -77 315 -83 206 -9 394 56 536 188 55 51 64 88 30 130 -32 40 -79 32
-141 -24 -97 -87 -255 -147 -390 -147 -133 0 -295 61 -389 146 -54 49 -86 60
-121 41z"/>
</g>
</svg>
