<?xml version="1.0" standalone="no"?>
<!DOCTYPE svg PUBLIC "-//W3C//DTD SVG 20010904//EN"
 "http://www.w3.org/TR/2001/REC-SVG-20010904/DTD/svg10.dtd">
<svg version="1.0" xmlns="http://www.w3.org/2000/svg"
 width="512.000000pt" height="512.000000pt" viewBox="0 0 512.000000 512.000000"
 preserveAspectRatio="xMidYMid meet">

<g transform="translate(0.000000,512.000000) scale(0.100000,-0.100000)"
fill="#000000" stroke="none">
<path d="M1288 5101 c-162 -53 -286 -193 -319 -360 -16 -82 -7 -193 23 -267
l23 -59 -70 -70 c-99 -98 -144 -199 -145 -321 l0 -51 -57 13 c-243 57 -491
-82 -564 -317 -16 -50 -19 -92 -19 -237 0 -247 26 -349 127 -506 54 -83 137
-169 215 -220 l57 -38 -20 -31 c-59 -97 -76 -260 -38 -382 11 -37 19 -68 17
-69 -2 -1 -28 -13 -58 -26 -224 -101 -388 -304 -445 -550 -10 -45 -15 -121
-15 -246 0 -195 9 -245 65 -339 34 -58 134 -148 197 -178 118 -55 265 -61 381
-17 165 62 284 222 303 404 7 64 7 66 43 77 20 6 57 22 83 35 l46 23 7 -62
c47 -456 280 -840 655 -1082 100 -65 202 -113 329 -155 176 -59 288 -74 499
-67 245 7 376 39 587 142 376 182 657 528 760 934 20 81 45 233 45 278 0 9 14
6 48 -10 26 -14 63 -30 83 -36 36 -11 36 -13 43 -77 34 -335 378 -529 684
-387 63 30 163 120 197 178 56 94 65 144 65 339 0 125 -5 201 -15 246 -57 246
-221 449 -445 550 -30 13 -56 25 -58 26 -2 1 6 32 17 69 25 79 28 199 7 268
l-14 47 58 0 c125 0 275 75 350 174 70 92 94 158 98 270 9 199 -66 340 -231
440 -89 53 -165 66 -384 66 l-188 0 -27 111 c-48 198 -158 392 -307 536 -35
35 -62 65 -60 66 2 2 26 19 52 38 102 71 174 203 184 336 18 225 -118 429
-328 494 -55 17 -95 19 -402 19 -360 0 -420 -5 -557 -46 -179 -55 -313 -136
-460 -282 -57 -57 -106 -99 -108 -93 -2 5 -22 38 -44 73 -87 135 -243 254
-406 311 -84 30 -93 31 -297 34 -184 3 -217 1 -267 -16z m450 -310 c157 -48
295 -196 331 -352 11 -45 16 -729 6 -729 -14 0 -95 46 -141 81 -59 43 -123
133 -155 217 -17 46 -23 87 -28 219 -5 142 -9 165 -27 190 -36 50 -77 63 -194
63 -133 0 -169 10 -213 60 -88 97 -43 237 88 271 52 14 265 1 333 -20z m2019
7 c66 -37 102 -111 89 -183 -9 -48 -68 -112 -114 -125 -21 -5 -159 -10 -317
-10 -154 0 -300 -5 -324 -11 -145 -33 -282 -155 -337 -299 -14 -36 -19 -97
-24 -305 -6 -225 -10 -269 -28 -325 -44 -134 -150 -251 -275 -303 l-37 -16 0
397 c0 219 5 436 11 482 29 235 158 446 352 574 191 126 286 145 707 142 232
-1 269 -3 297 -18z m-2317 -1061 c0 -471 -3 -498 -58 -601 -36 -69 -135 -167
-201 -201 -82 -41 -138 -55 -228 -55 -141 0 -251 48 -350 153 -107 113 -133
190 -133 397 0 136 2 149 23 181 43 64 126 94 194 68 42 -15 92 -68 103 -109
5 -19 10 -82 10 -140 0 -116 13 -158 62 -193 42 -31 118 -34 165 -7 78 44 77
38 83 461 l5 376 27 35 c42 55 78 68 196 68 l102 0 0 -433z m2010 394 c52 -18
127 -51 165 -73 87 -51 230 -192 277 -273 72 -124 118 -280 118 -398 0 -69 30
-127 79 -155 37 -21 50 -22 310 -22 310 0 332 -4 382 -73 56 -77 34 -178 -51
-235 l-34 -23 -326 3 -325 3 -78 37 c-171 82 -287 258 -287 435 0 226 -160
427 -378 472 -29 6 -100 11 -157 11 l-105 0 0 105 c0 112 8 142 52 182 39 37
68 43 168 39 73 -3 118 -11 190 -35z m-1555 -682 c44 -21 104 -45 133 -51 l52
-13 0 -66 c0 -259 -126 -546 -330 -750 -191 -191 -408 -296 -684 -329 -120
-14 -167 -7 -212 33 -45 39 -64 76 -64 127 0 104 85 170 221 170 151 0 352 88
482 209 181 171 257 355 257 627 l0 126 33 -22 c17 -12 68 -39 112 -61z m1368
67 c39 -16 82 -61 96 -99 6 -16 11 -53 11 -83 0 -268 184 -557 433 -679 105
-52 225 -85 306 -85 102 0 172 -34 206 -101 19 -36 19 -102 1 -138 -23 -44
-80 -88 -124 -96 -81 -13 -308 26 -432 75 -366 144 -638 476 -705 859 -8 46
-15 145 -15 222 l0 139 95 0 c59 0 108 -5 128 -14z m-489 -519 c22 -93 90
-262 143 -352 168 -287 412 -493 746 -633 l27 -12 0 -319 c0 -340 -7 -424 -46
-559 -53 -181 -137 -323 -277 -469 -220 -228 -492 -344 -807 -344 -363 0 -691
167 -915 466 -97 129 -180 337 -204 509 -16 115 -15 726 2 726 29 0 216 94
307 154 234 156 434 400 536 653 29 72 29 72 74 79 109 16 261 79 345 142 22
17 43 31 46 31 3 1 13 -32 23 -72z m-1659 -1124 c-10 -68 -43 -131 -95 -183
-58 -59 -119 -87 -214 -99 -135 -16 -166 -58 -166 -223 0 -131 -10 -167 -60
-211 -83 -76 -202 -54 -258 47 -26 47 -22 287 6 373 50 156 183 284 342 329
29 8 118 13 249 13 l203 1 -7 -47z m3330 33 c161 -43 297 -172 347 -329 28
-86 32 -326 6 -373 -56 -101 -175 -123 -258 -47 -50 44 -60 80 -60 211 0 165
-31 207 -166 223 -95 12 -156 40 -214 99 -52 52 -85 115 -95 183 l-7 47 198 0
c134 0 215 -5 249 -14z"/>
<path d="M1837 1888 c-79 -46 -98 -159 -39 -229 40 -48 77 -59 200 -59 92 0
114 3 152 23 108 55 108 215 0 269 -28 14 -60 18 -155 18 -105 0 -125 -3 -158
-22z"/>
<path d="M2970 1892 c-108 -54 -108 -214 0 -269 38 -20 60 -23 152 -23 123 0
160 11 200 59 60 70 40 184 -41 229 -34 19 -54 22 -157 22 -93 0 -127 -4 -154
-18z"/>
<path d="M2175 1256 c-90 -40 -120 -163 -57 -238 48 -57 58 -58 442 -58 384 0
394 1 442 58 39 47 45 102 16 159 -45 91 -29 88 -446 90 -290 2 -373 0 -397
-11z"/>
</g>
</svg>
