<?xml version="1.0" standalone="no"?>
<!DOCTYPE svg PUBLIC "-//W3C//DTD SVG 20010904//EN"
 "http://www.w3.org/TR/2001/REC-SVG-20010904/DTD/svg10.dtd">
<svg version="1.0" xmlns="http://www.w3.org/2000/svg"
 width="512.000000pt" height="512.000000pt" viewBox="0 0 512.000000 512.000000"
 preserveAspectRatio="xMidYMid meet">

<g transform="translate(0.000000,512.000000) scale(0.100000,-0.100000)"
fill="#000000" stroke="none">
<path d="M2360 5029 c-674 -76 -1260 -510 -1521 -1126 -105 -247 -140 -412
-148 -703 l-6 -215 -80 -6 c-258 -19 -479 -193 -569 -448 -27 -77 -30 -98 -31
-206 0 -106 3 -130 29 -209 86 -263 324 -445 601 -459 l69 -4 28 -123 c19 -84
24 -127 18 -135 -6 -7 -38 -25 -72 -40 -52 -23 -81 -29 -176 -34 -97 -5 -116
-9 -128 -25 -29 -40 -18 -77 49 -155 182 -213 464 -404 717 -486 76 -25 93
-35 155 -94 442 -421 1114 -591 1727 -436 304 78 583 228 803 436 64 60 79 69
167 98 246 82 517 267 700 478 72 83 84 118 54 159 -12 16 -31 20 -129 25
-101 5 -123 10 -187 40 -82 38 -78 15 -37 193 l22 99 70 4 c274 14 506 189
599 452 28 78 30 97 30 211 0 114 -2 133 -30 211 -90 253 -309 427 -564 447
l-85 7 -6 210 c-4 118 -13 245 -22 290 -76 397 -234 704 -509 990 -107 112
-151 142 -191 131 -32 -8 -61 -58 -53 -91 3 -12 29 -44 58 -70 223 -205 390
-460 481 -735 58 -175 79 -299 84 -519 l6 -194 -159 6 c-248 9 -434 59 -694
189 -209 103 -402 234 -578 392 -74 66 -116 75 -151 30 -12 -15 -21 -33 -21
-41 0 -7 43 -125 95 -260 52 -136 92 -249 89 -252 -3 -3 -85 -5 -182 -5 -523
4 -999 150 -1381 422 -99 70 -341 295 -341 317 0 21 64 155 118 245 231 392
621 684 1057 793 159 40 249 51 425 51 296 0 544 -60 799 -195 105 -55 137
-60 169 -26 29 31 28 72 -3 103 -35 35 -248 136 -375 178 -246 82 -540 113
-790 85z m-1205 -1630 c367 -281 814 -444 1335 -489 224 -19 488 -7 536 25 37
24 31 66 -31 226 -30 79 -54 144 -52 145 1 1 54 -33 117 -75 259 -176 525
-294 783 -350 117 -25 322 -44 390 -35 l48 7 -4 -569 c-4 -521 -6 -577 -24
-662 -11 -50 -22 -94 -25 -97 -2 -3 -64 58 -136 134 -254 268 -428 343 -742
320 -163 -12 -280 -43 -410 -110 -127 -66 -258 -177 -353 -299 l-27 -35 -27
35 c-165 212 -385 348 -641 396 -111 21 -327 20 -406 -1 -173 -46 -252 -98
-443 -292 l-152 -155 -10 38 c-35 132 -36 172 -36 999 0 818 0 820 23 935 13
63 26 118 28 122 3 5 49 -31 102 -80 53 -48 124 -108 157 -133z m-467 -721
l-3 -153 -46 -6 c-112 -16 -224 -101 -251 -190 -10 -35 -9 -43 9 -67 38 -52
99 -42 137 22 27 45 90 86 134 86 l22 0 0 -281 0 -282 -72 5 c-295 21 -516
315 -455 605 24 111 61 179 141 258 104 103 211 153 334 154 l53 1 -3 -152z
m3895 137 c92 -24 157 -63 233 -139 142 -142 186 -330 123 -520 -64 -194 -265
-346 -456 -346 l-53 0 0 280 0 280 53 0 c76 -1 129 -28 162 -84 39 -66 99 -76
138 -24 18 24 19 32 9 67 -17 56 -91 134 -154 161 -32 14 -83 26 -128 29 l-75
6 -3 153 -3 152 49 0 c26 0 74 -7 105 -15z m-2630 -1019 c154 -46 257 -109
375 -227 39 -41 96 -108 125 -149 85 -121 126 -125 196 -21 145 213 321 345
537 402 112 29 326 37 414 15 147 -37 247 -111 451 -334 169 -185 278 -264
410 -295 27 -6 49 -15 49 -18 0 -4 -30 -34 -67 -67 -208 -184 -460 -310 -683
-343 -103 -15 -336 -6 -440 16 -239 52 -506 181 -678 329 -70 60 -94 60 -164
0 -29 -25 -93 -72 -143 -104 -49 -32 -100 -67 -112 -79 -29 -25 -29 -60 -2
-95 40 -50 105 -27 272 96 l67 50 53 -40 c249 -190 554 -305 883 -332 64 -5
118 -11 121 -13 5 -6 -101 -81 -184 -131 -354 -212 -812 -286 -1233 -200 -197
41 -465 157 -625 271 -75 53 -78 58 -55 64 14 4 53 7 87 8 146 2 441 72 476
113 33 39 17 99 -30 115 -22 8 -51 3 -128 -19 -187 -54 -415 -73 -575 -48
-219 35 -468 162 -672 342 -38 33 -68 63 -68 67 0 3 22 12 49 18 134 32 249
117 431 317 178 197 279 272 420 311 90 25 330 15 443 -19z"/>
<path d="M1725 2675 l-25 -24 0 -244 c0 -232 1 -246 21 -271 27 -34 77 -36
107 -3 21 23 22 30 22 273 0 249 0 251 -23 272 -31 29 -72 28 -102 -3z"/>
<path d="M3292 2677 c-21 -23 -22 -30 -22 -275 0 -239 1 -253 20 -272 30 -30
83 -27 109 6 20 25 21 39 21 271 l0 244 -25 24 c-31 32 -74 33 -103 2z"/>
</g>
</svg>
